<svg width="65" height="73" viewBox="0 0 65 73" fill="none" xmlns="http://www.w3.org/2000/svg">
<path d="M28.081 40.246V48.864C24.811 49.584 21.613 50.452 18.544 51.584C17.875 51.799 17.141 52.08 16.362 52.441C16.351 52.446 16.34 52.449 16.329 52.454V52.456C11.558 54.674 5.07 59.962 0.940002 72.579H6.224C9.41 63.797 13.747 59.63 17.139 57.648L19.46 72.532H46.066L48.387 57.648C51.779 59.629 56.117 63.797 59.302 72.579H64.586C60.456 59.961 53.967 54.674 49.196 52.456V52.454C49.185 52.449 49.174 52.446 49.163 52.441C48.384 52.08 47.65 51.8 46.981 51.584C43.912 50.452 40.714 49.584 37.444 48.864V40.246H28.081Z" fill="#00A683"/>
<path d="M32.763 0.474001C21.189 0.474001 14.003 5.472 14.581 18.056C14.856 24.038 23.414 45.306 32.623 44.558H32.903C42.112 45.306 50.67 24.039 50.945 18.056C51.523 5.473 44.337 0.474001 32.763 0.474001Z" fill="#61BC6E"/>
<path d="M30.973 27.693C30.357 30.08 27.504 31.247 24.601 30.299C21.698 29.352 19.844 26.649 20.461 24.262C21.077 21.875 23.93 20.708 26.832 21.656C29.736 22.603 31.589 25.306 30.973 27.693Z" fill="#FDD303"/>
<path d="M34.553 27.693C35.169 30.08 38.022 31.247 40.924 30.299C43.826 29.351 45.681 26.649 45.064 24.262C44.448 21.875 41.595 20.708 38.692 21.656C35.79 22.603 33.937 25.306 34.553 27.693Z" fill="#FDD303"/>
<path opacity="0.2" d="M21.851 25.106C22.467 22.719 25.32 21.552 28.222 22.5C28.471 22.581 28.71 22.68 28.943 22.786C28.336 22.308 27.625 21.915 26.833 21.656C23.93 20.709 21.078 21.876 20.461 24.262C19.898 26.444 21.402 28.885 23.881 30.013C22.264 28.74 21.403 26.841 21.851 25.106Z" fill="#1D1D1B"/>
<path opacity="0.2" d="M43.675 25.106C43.059 22.719 40.206 21.552 37.303 22.5C37.054 22.581 36.815 22.68 36.582 22.786C37.189 22.308 37.9 21.915 38.692 21.656C41.595 20.709 44.447 21.876 45.063 24.262C45.626 26.444 44.122 28.885 41.643 30.013C43.262 28.74 44.123 26.841 43.675 25.106Z" fill="#1D1D1B"/>
<path opacity="0.4" d="M32.763 40.555C32.709 40.556 32.654 40.556 32.599 40.556C30.317 40.556 28.467 39.866 28.467 39.014C28.467 38.163 30.317 37.472 32.599 37.472C32.654 37.472 32.708 37.472 32.763 37.473C32.817 37.472 32.872 37.472 32.926 37.472C35.208 37.472 37.058 38.162 37.058 39.014C37.058 39.865 35.208 40.556 32.926 40.556C32.872 40.556 32.817 40.556 32.763 40.555Z" fill="#1D1D1B"/>
<path opacity="0.2" d="M17.139 57.649L19.46 72.533H25.456C24.789 66.139 20.039 59.389 17.139 57.649Z" fill="#1D1D1B"/>
<path opacity="0.2" d="M48.387 57.649L46.066 72.533H40.07C40.737 66.139 45.487 59.389 48.387 57.649Z" fill="#1D1D1B"/>
<g opacity="0.3">
<path d="M20.757 12.558C20.757 12.558 20.856 12.556 21.042 12.552C21.229 12.543 21.498 12.53 21.855 12.612C22.209 12.677 22.616 12.864 23.043 13.062C23.477 13.248 23.949 13.398 24.513 13.379L24.722 13.385C24.747 13.389 24.859 13.371 24.924 13.365C25.077 13.347 25.233 13.329 25.392 13.311C25.655 13.236 25.921 13.154 26.197 13.005C26.708 12.697 27.457 12.203 28.29 12.153C28.502 12.143 28.678 12.094 28.927 12.119C29.118 12.132 29.297 12.131 29.501 12.154C29.962 12.228 30.407 12.375 30.762 12.575C31.137 12.777 31.428 12.933 31.747 13.043C31.912 13.073 32.066 13.13 32.239 13.145C32.396 13.155 32.625 13.166 32.723 13.179L33.314 13.14C33.495 13.117 33.618 13.066 33.775 13.039C34.091 12.926 34.383 12.77 34.76 12.567C35.122 12.364 35.565 12.224 35.991 12.153C36.202 12.132 36.412 12.126 36.619 12.115C36.902 12.1 37.019 12.141 37.224 12.151C37.396 12.156 37.612 12.206 37.826 12.265C38.045 12.309 38.227 12.395 38.406 12.482C38.765 12.656 39.051 12.855 39.326 13.007C39.853 13.31 40.459 13.388 41.006 13.379C41.152 13.372 41.304 13.376 41.436 13.361C41.558 13.336 41.677 13.31 41.797 13.294C42.035 13.237 42.266 13.162 42.481 13.06C42.908 12.863 43.318 12.677 43.669 12.613C44.019 12.532 44.296 12.544 44.484 12.553C44.67 12.557 44.769 12.56 44.769 12.56C44.769 12.56 44.671 12.577 44.488 12.608C44.304 12.629 44.04 12.684 43.725 12.8C43.404 12.908 43.07 13.123 42.655 13.39C42.452 13.524 42.206 13.649 41.933 13.756C41.642 13.858 41.335 13.922 41.052 13.94C40.427 14.007 39.706 13.979 39.011 13.664C38.32 13.335 37.835 13.065 37.158 13.03C36.459 12.976 35.814 13.072 35.207 13.425C34.901 13.594 34.508 13.821 34.083 13.974C33.857 14.03 33.601 14.103 33.392 14.13L32.802 14.177C32.506 14.167 32.341 14.145 32.105 14.128C31.886 14.104 31.663 14.029 31.444 13.978C31.019 13.829 30.624 13.602 30.317 13.432C29.993 13.248 29.7 13.157 29.414 13.08C29.243 13.051 29.041 13.041 28.858 13.021C28.732 12.994 28.535 13.029 28.378 13.028C27.709 13.056 27.19 13.331 26.516 13.659C26.178 13.808 25.807 13.896 25.443 13.951C25.283 13.956 25.126 13.96 24.972 13.965C24.884 13.965 24.844 13.974 24.718 13.967L24.48 13.941C23.85 13.921 23.281 13.65 22.872 13.392C22.458 13.124 22.122 12.909 21.804 12.801C21.495 12.686 21.223 12.629 21.039 12.608C20.855 12.574 20.757 12.558 20.757 12.558Z" fill="#1D1D1B"/>
</g>
<g opacity="0.3">
<path d="M23.392 7.941C23.392 7.941 23.472 7.939 23.622 7.935C23.773 7.924 23.988 7.916 24.28 8.003C24.564 8.079 24.883 8.262 25.207 8.452C25.54 8.633 25.892 8.779 26.328 8.757L26.488 8.761C26.483 8.764 26.591 8.745 26.638 8.739C26.759 8.719 26.882 8.698 27.008 8.677C27.099 8.633 27.19 8.598 27.283 8.565L27.576 8.391C27.938 8.113 28.522 7.606 29.241 7.537C29.425 7.526 29.563 7.474 29.79 7.502C29.947 7.517 30.079 7.51 30.259 7.543C30.668 7.625 31.035 7.797 31.303 7.99C31.592 8.19 31.801 8.329 32.027 8.436C32.146 8.462 32.254 8.512 32.378 8.53C32.485 8.538 32.682 8.547 32.715 8.563L33.189 8.523C33.315 8.493 33.387 8.456 33.496 8.431C33.722 8.323 33.93 8.182 34.223 7.981C34.497 7.783 34.866 7.622 35.231 7.545C35.411 7.515 35.589 7.512 35.766 7.499C35.829 7.499 35.812 7.489 35.94 7.496L36.052 7.51L36.275 7.537C36.553 7.563 37.02 7.717 37.26 7.891C37.542 8.069 37.751 8.252 37.951 8.396C38.323 8.676 38.775 8.759 39.195 8.756C39.31 8.749 39.441 8.757 39.535 8.738C39.624 8.715 39.711 8.692 39.801 8.677C39.979 8.618 40.157 8.548 40.321 8.449C40.645 8.26 40.966 8.076 41.248 8.003C41.531 7.919 41.756 7.924 41.908 7.936C42.058 7.94 42.137 7.942 42.137 7.942C42.137 7.942 42.059 7.959 41.912 7.99C41.764 8.009 41.558 8.071 41.317 8.185C41.074 8.298 40.834 8.499 40.528 8.758C40.38 8.888 40.19 9.011 39.974 9.126C39.734 9.231 39.473 9.308 39.251 9.327L39.073 9.355C38.955 9.369 38.923 9.356 38.843 9.357C38.704 9.351 38.562 9.345 38.418 9.339C38.123 9.28 37.829 9.183 37.555 9.028C37.298 8.876 37.064 8.711 36.85 8.605C36.742 8.557 36.631 8.493 36.537 8.48C36.44 8.454 36.358 8.411 36.188 8.412L35.964 8.398L35.851 8.391C35.903 8.394 35.812 8.4 35.8 8.404C35.677 8.424 35.549 8.43 35.429 8.455C35.199 8.53 34.995 8.614 34.759 8.785C34.538 8.941 34.234 9.168 33.888 9.333C33.697 9.402 33.469 9.475 33.287 9.51L32.814 9.558C32.53 9.55 32.411 9.525 32.203 9.506C32.016 9.474 31.827 9.398 31.642 9.34C31.294 9.176 30.989 8.951 30.766 8.792C30.526 8.616 30.321 8.536 30.136 8.465C30.02 8.431 29.843 8.424 29.701 8.402C29.627 8.375 29.467 8.411 29.354 8.409C28.86 8.437 28.498 8.69 27.974 9.021C27.831 9.09 27.697 9.161 27.553 9.22C27.393 9.266 27.235 9.308 27.081 9.34C26.952 9.345 26.824 9.35 26.699 9.355C26.622 9.355 26.608 9.362 26.482 9.357L26.283 9.328C25.754 9.298 25.297 9.009 25 8.761C24.695 8.502 24.453 8.3 24.213 8.187C24.091 8.135 23.981 8.089 23.886 8.049C23.78 8.026 23.69 8.007 23.616 7.991C23.47 7.958 23.392 7.941 23.392 7.941Z" fill="#1D1D1B"/>
</g>
</svg>
