<svg id="Layer_1" data-name="Layer 1" xmlns="http://www.w3.org/2000/svg" viewBox="0 0 427 427"><defs><style>.cls-1{fill:#040000;}</style></defs><title>logo</title><path class="cls-1" d="M86.5,86.5v427h427V86.5ZM415.66,385.29a117.11,117.11,0,0,1-25.83,36.09,113,113,0,0,1-37,23.17A125.78,125.78,0,0,1,307,452.71q-31.53,0-56.6-11.77a123.66,123.66,0,0,1-42.54-32.48,145.93,145.93,0,0,1-26.78-48.62A187.8,187.8,0,0,1,171.8,300q0-33,9.31-61.53t27-49.57a128.33,128.33,0,0,1,42.54-33.24q24.87-12.15,56.41-12.15a134.54,134.54,0,0,1,43.49,7,115.94,115.94,0,0,1,36.65,20.13,104.27,104.27,0,0,1,38,73.5H375a53.92,53.92,0,0,0-7.41-21.08,58.52,58.52,0,0,0-15-16.52,74.88,74.88,0,0,0-20.7-10.83,76.2,76.2,0,0,0-24.88-4q-22.42,0-38.18,8.73a72.85,72.85,0,0,0-25.64,23.55,103.9,103.9,0,0,0-14.43,34.57,183.55,183.55,0,0,0-4.56,41.4,171,171,0,0,0,4.56,39.69,101.78,101.78,0,0,0,14.62,34A75,75,0,0,0,269,397.26Q284.61,406,307,406a69.63,69.63,0,0,0,27.92-5.5,68,68,0,0,0,21.84-14.82A70.62,70.62,0,0,0,371.22,364a76,76,0,0,0,6.08-26h50.52Q425.54,364.22,415.66,385.29Z" transform="translate(-86.5 -86.5)"/></svg>